#N canvas 150 88 938 534 12;
#X obj 63 205 openpanel;
#X obj 66 171 bng 20 250 50 0 empty empty empty 0 -10 0 12 #fcfcfc #000000 #000000;
#X obj 37 352 array define sound;
#X msg 61 237 read -resize \$1 sound;
#X obj 61 264 soundfiler;
#X obj 432 376 bng 20 250 50 0 empty empty empty 0 -10 0 12 #fcfcfc #000000 #000000;
#X obj 420 458 dac~ 1 2;
#X obj 432 418 tabplay~ sound;
#X obj 527 449 bng 20 250 50 0 empty empty empty 0 -10 0 12 #fcfcfc #000000 #000000;
#X obj 420 14 tgl 20 0 empty empty empty 0 -10 0 12 #fcfcfc #000000 #000000 0 1;
#X floatatom 63 301 19 0 0 0 - - - 0;
#X obj 322 259 *~;
#X obj 149 266 bng 20 250 50 0 empty empty empty 0 -10 0 12 #fcfcfc #000000 #000000;
#X obj 281 295 tabread4~ sound;
#X obj 405 55 metro 200;
#X obj 397 85 random 10;
#X obj 376 115 - 5;
#X floatatom 375 146 5 0 0 0 - - - 0;
#X obj 200 372 scope;
#X obj 317 219 phasor~ 1;
#X obj 478 92 random 10;
#X obj 457 122 - 5;
#X floatatom 456 153 5 0 0 0 - - - 0;
#X obj 430 242 *~;
#X obj 421 299 tabread4~ sound;
#X obj 430 213 phasor~ 1;
#X obj 592 268 *~;
#X obj 551 304 tabread4~ sound;
#X obj 667 94 random 10;
#X obj 646 124 - 5;
#X floatatom 645 155 5 0 0 0 - - - 0;
#X obj 587 228 phasor~ 1;
#X obj 748 101 random 10;
#X obj 727 131 - 5;
#X floatatom 726 162 5 0 0 0 - - - 0;
#X obj 700 251 *~;
#X obj 691 308 tabread4~ sound;
#X obj 695 211 phasor~ 1;
#X obj 368 173 /~ 16;
#X obj 454 176 /~ 16;
#X obj 638 181 /~ 16;
#X obj 725 184 /~ 16;
#X connect 0 0 3 0;
#X connect 1 0 0 0;
#X connect 3 0 4 0;
#X connect 4 0 10 0;
#X connect 5 0 7 0;
#X connect 7 0 6 0;
#X connect 7 0 6 1;
#X connect 7 1 8 0;
#X connect 8 0 5 0;
#X connect 9 0 14 0;
#X connect 10 0 11 1;
#X connect 10 0 23 1;
#X connect 10 0 26 1;
#X connect 10 0 35 1;
#X connect 11 0 13 0;
#X connect 12 0 10 0;
#X connect 13 0 6 0;
#X connect 14 0 15 0;
#X connect 14 0 20 0;
#X connect 14 0 28 0;
#X connect 14 0 32 0;
#X connect 15 0 16 0;
#X connect 16 0 17 0;
#X connect 17 0 38 0;
#X connect 19 0 18 0;
#X connect 19 0 11 0;
#X connect 20 0 21 0;
#X connect 21 0 22 0;
#X connect 22 0 39 0;
#X connect 23 0 24 0;
#X connect 24 0 6 0;
#X connect 25 0 23 0;
#X connect 26 0 27 0;
#X connect 27 0 6 1;
#X connect 28 0 29 0;
#X connect 29 0 30 0;
#X connect 30 0 40 0;
#X connect 31 0 26 0;
#X connect 32 0 33 0;
#X connect 33 0 34 0;
#X connect 34 0 41 0;
#X connect 35 0 36 0;
#X connect 36 0 6 1;
#X connect 37 0 35 0;
#X connect 38 0 19 0;
#X connect 39 0 25 0;
#X connect 40 0 31 0;
#X connect 41 0 37 0;
